<svg width="102" height="116" viewBox="0 0 102 116" fill="none" xmlns="http://www.w3.org/2000/svg">
<path d="M51.014 4.82265C51.863 3.6055 52.9536 2.57638 54.218 1.79948C55.4824 1.02258 56.8933 0.514582 58.3627 0.307176C59.8321 0.0997708 61.3284 0.197411 62.7584 0.594004C64.1884 0.990598 65.5213 1.67763 66.674 2.61225L90.218 21.7282C92.3217 23.4353 93.707 25.8707 94.099 28.5514C94.4911 31.232 93.8614 33.9622 92.3348 36.2002H83.5508L86.3588 32.1754C86.8815 31.4299 87.1023 30.5141 86.9767 29.6123C86.8511 28.7105 86.3885 27.8898 85.682 27.3154L73.5572 17.4802L60.626 36.2002H51.8636L67.9484 12.9298L62.1308 8.20665C61.7467 7.89499 61.3026 7.66582 60.826 7.53343C60.3494 7.40105 59.8507 7.36829 59.3609 7.4372C58.8711 7.5061 58.4008 7.6752 57.9792 7.93394C57.5577 8.19268 57.194 8.53551 56.9108 8.94105L37.8956 36.193H29.1116L51.014 4.82265ZM76.1996 79.4002C75.2448 79.4002 74.3292 79.7795 73.654 80.4547C72.9789 81.1298 72.5996 82.0455 72.5996 83.0003C72.5996 83.955 72.9789 84.8707 73.654 85.5458C74.3292 86.221 75.2448 86.6003 76.1996 86.6003H83.3996C84.3544 86.6003 85.2701 86.221 85.9452 85.5458C86.6203 84.8707 86.9996 83.955 86.9996 83.0003C86.9996 82.0455 86.6203 81.1298 85.9452 80.4547C85.2701 79.7795 84.3544 79.4002 83.3996 79.4002H76.1996ZM11.3996 29.0002H27.0164L21.9764 36.2002H11.3996C10.4448 36.2002 9.52916 36.5795 8.85403 37.2547C8.17889 37.9298 7.79961 38.8455 7.79961 39.8002C7.79961 40.755 8.17889 41.6707 8.85403 42.3458C9.52916 43.021 10.4448 43.4002 11.3996 43.4002H86.9996C90.8187 43.4002 94.4814 44.9174 97.1819 47.6179C99.8825 50.3184 101.4 53.9811 101.4 57.8002V101C101.4 104.819 99.8825 108.482 97.1819 111.183C94.4814 113.883 90.8187 115.4 86.9996 115.4H18.5996C13.8257 115.4 9.24734 113.504 5.87169 110.128C2.49603 106.753 0.599609 102.174 0.599609 97.4002V39.8002C0.599609 36.9359 1.73746 34.1889 3.76286 32.1635C5.78825 30.1381 8.53527 29.0002 11.3996 29.0002ZM7.79961 97.4002C7.79961 100.265 8.93746 103.012 10.9629 105.037C12.9882 107.062 15.7353 108.2 18.5996 108.2H86.9996C88.9092 108.2 90.7405 107.442 92.0908 106.091C93.441 104.741 94.1996 102.91 94.1996 101V57.8002C94.1996 55.8907 93.441 54.0593 92.0908 52.7091C90.7405 51.3588 88.9092 50.6002 86.9996 50.6002H11.3996C10.1396 50.6002 8.92281 50.3842 7.79961 49.9882V97.4002Z" fill="white"/>
</svg>
